<svg width="82" height="11" viewBox="0 0 82 11" fill="none" xmlns="http://www.w3.org/2000/svg">
<path d="M4.71746 11C3.18835 11 2.01712 10.6205 1.20376 9.86154C0.401255 9.09231 0 7.96923 0 6.49231V0.0153841H1.69178V6.46154C1.69178 8.5641 2.70034 9.61538 4.71746 9.61538C6.73458 9.61538 7.74314 8.5641 7.74314 6.46154V0.0153841H9.40238V6.49231C9.40238 7.96923 9.00655 9.09231 8.21488 9.86154C7.42322 10.6205 6.25741 11 4.71746 11Z" fill="white"/>
<path d="M16.5176 11C15.5199 11 14.777 10.759 14.289 10.2769C13.801 9.79487 13.557 9.09744 13.557 8.18462V4.55385H12.0116V3.35385H13.557V1.09231H15.1999V3.35385H17.6563V4.55385H15.1999V8.06154C15.1999 8.60513 15.3192 9.01539 15.5578 9.29231C15.8073 9.56923 16.2085 9.70769 16.7616 9.70769C16.9351 9.70769 17.1032 9.69231 17.2659 9.66154C17.4285 9.62051 17.5912 9.57436 17.7539 9.52308L18.0142 10.6923C17.8515 10.7846 17.6237 10.8564 17.3309 10.9077C17.049 10.9692 16.7779 11 16.5176 11Z" fill="white"/>
<path d="M23.1584 11C22.5077 11 21.9004 10.9231 21.3365 10.7692C20.7725 10.6051 20.3008 10.3795 19.9212 10.0923L20.393 9.04615C20.7942 9.31282 21.2334 9.51795 21.7106 9.66154C22.1986 9.80513 22.6866 9.87692 23.1746 9.87692C23.7494 9.87692 24.1832 9.77949 24.476 9.58462C24.7688 9.38974 24.9152 9.12821 24.9152 8.8C24.9152 8.53333 24.8176 8.32821 24.6224 8.18462C24.4272 8.03077 24.1344 7.91282 23.744 7.83077L22.1986 7.53846C20.8322 7.2718 20.149 6.60513 20.149 5.53846C20.149 4.83077 20.4472 4.26667 21.0436 3.84615C21.6401 3.42564 22.4209 3.21538 23.3861 3.21538C23.9392 3.21538 24.4652 3.29231 24.964 3.44615C25.4737 3.6 25.8967 3.83077 26.2328 4.13846L25.7611 5.18462C25.4358 4.91795 25.0616 4.71282 24.6387 4.56923C24.2157 4.42564 23.7982 4.35385 23.3861 4.35385C22.8222 4.35385 22.3938 4.45641 22.101 4.66154C21.8082 4.85641 21.6618 5.12308 21.6618 5.46154C21.6618 5.97436 22.0197 6.30256 22.7354 6.44615L24.2808 6.73846C24.9857 6.8718 25.5171 7.09744 25.875 7.41539C26.2437 7.73333 26.4281 8.1641 26.4281 8.70769C26.4281 9.42564 26.1298 9.98974 25.5334 10.4C24.9369 10.8 24.1452 11 23.1584 11Z" fill="white"/>
<path d="M32.3879 11C30.4684 11 29.5086 9.98974 29.5086 7.96923V3.35385H31.1516V7.98462C31.1516 8.58974 31.2817 9.0359 31.542 9.32308C31.8023 9.61026 32.2144 9.75385 32.7783 9.75385C33.3965 9.75385 33.8953 9.55898 34.2749 9.16923C34.6653 8.77949 34.8605 8.25641 34.8605 7.6V3.35385H36.5035V10.8615H34.9093V9.66154C34.649 10.1026 34.302 10.4359 33.8682 10.6615C33.4344 10.8872 32.941 11 32.3879 11Z" fill="white"/>
<path d="M40.1202 10.8615V0.0153841H41.7632V6.63077H41.7958L45.2444 3.35385H47.2778L43.4713 6.96923L47.5706 10.8615H45.5209L41.7958 7.43077H41.7632V10.8615H40.1202Z" fill="white"/>
<path d="M52.6398 11C50.7203 11 49.7605 9.98974 49.7605 7.96923V3.35385H51.4035V7.98462C51.4035 8.58974 51.5336 9.0359 51.7939 9.32308C52.0542 9.61026 52.4663 9.75385 53.0302 9.75385C53.6484 9.75385 54.1472 9.55898 54.5268 9.16923C54.9172 8.77949 55.1124 8.25641 55.1124 7.6V3.35385H56.7554V10.8615H55.1612V9.66154C54.9009 10.1026 54.5539 10.4359 54.1201 10.6615C53.6863 10.8872 53.1929 11 52.6398 11Z" fill="white"/>
<path d="M63.1538 11C62.5031 11 61.8958 10.9231 61.3319 10.7692C60.768 10.6051 60.2962 10.3795 59.9167 10.0923L60.3884 9.04615C60.7897 9.31282 61.2289 9.51795 61.706 9.66154C62.194 9.80513 62.6821 9.87692 63.1701 9.87692C63.7448 9.87692 64.1786 9.77949 64.4714 9.58462C64.7642 9.38974 64.9107 9.12821 64.9107 8.8C64.9107 8.53333 64.8131 8.32821 64.6178 8.18462C64.4226 8.03077 64.1298 7.91282 63.7394 7.83077L62.194 7.53846C60.8276 7.2718 60.1444 6.60513 60.1444 5.53846C60.1444 4.83077 60.4426 4.26667 61.0391 3.84615C61.6355 3.42564 62.4164 3.21538 63.3815 3.21538C63.9346 3.21538 64.4606 3.29231 64.9595 3.44615C65.4692 3.6 65.8921 3.83077 66.2283 4.13846L65.7565 5.18462C65.4312 4.91795 65.0571 4.71282 64.6341 4.56923C64.2112 4.42564 63.7936 4.35385 63.3815 4.35385C62.8176 4.35385 62.3893 4.45641 62.0964 4.66154C61.8036 4.85641 61.6572 5.12308 61.6572 5.46154C61.6572 5.97436 62.0151 6.30256 62.7309 6.44615L64.2762 6.73846C64.9811 6.8718 65.5125 7.09744 65.8704 7.41539C66.2391 7.73333 66.4235 8.1641 66.4235 8.70769C66.4235 9.42564 66.1253 9.98974 65.5288 10.4C64.9323 10.8 64.1407 11 63.1538 11Z" fill="white"/>
<path d="M69.5529 10.8615V0.0153841H71.1959V4.52308C71.467 4.09231 71.8303 3.76923 72.2858 3.55385C72.7521 3.32821 73.2726 3.21538 73.8474 3.21538C75.7235 3.21538 76.6616 4.22051 76.6616 6.23077V10.8615H75.0186V6.32308C75.0186 5.67692 74.8831 5.20513 74.6119 4.90769C74.3517 4.61026 73.9396 4.46154 73.3756 4.46154C72.7141 4.46154 72.1827 4.66154 71.7815 5.06154C71.3911 5.45128 71.1959 5.96923 71.1959 6.61538V10.8615H69.5529Z" fill="white"/>
<path d="M80.0805 1.61538V0H82V1.61538H80.0805ZM80.2269 10.8615V3.35385H81.8699V10.8615H80.2269Z" fill="white"/>
</svg>
