<svg width="121" height="18" viewBox="0 0 121 18" fill="none" xmlns="http://www.w3.org/2000/svg">
<path d="M6.96 17.16C4.704 17.16 2.976 16.568 1.776 15.384C0.592 14.184 0 12.432 0 10.128V0.0239992H2.496V10.08C2.496 13.36 3.984 15 6.96 15C9.936 15 11.424 13.36 11.424 10.08V0.0239992H13.872V10.128C13.872 12.432 13.288 14.184 12.12 15.384C10.952 16.568 9.232 17.16 6.96 17.16Z" fill="#161616"/>
<path d="M24.3696 17.16C22.8976 17.16 21.8016 16.784 21.0816 16.032C20.3616 15.28 20.0016 14.192 20.0016 12.768V7.104H17.7216V5.232H20.0016V1.704H22.4256V5.232H26.0496V7.104H22.4256V12.576C22.4256 13.424 22.6016 14.064 22.9536 14.496C23.3216 14.928 23.9136 15.144 24.7296 15.144C24.9856 15.144 25.2336 15.12 25.4736 15.072C25.7136 15.008 25.9536 14.936 26.1936 14.856L26.5776 16.68C26.3376 16.824 26.0016 16.936 25.5696 17.016C25.1536 17.112 24.7536 17.16 24.3696 17.16Z" fill="#161616"/>
<path d="M34.1672 17.16C33.2072 17.16 32.3112 17.04 31.4792 16.8C30.6472 16.544 29.9512 16.192 29.3912 15.744L30.0872 14.112C30.6792 14.528 31.3272 14.848 32.0312 15.072C32.7512 15.296 33.4712 15.408 34.1912 15.408C35.0392 15.408 35.6792 15.256 36.1112 14.952C36.5432 14.648 36.7592 14.24 36.7592 13.728C36.7592 13.312 36.6152 12.992 36.3272 12.768C36.0392 12.528 35.6072 12.344 35.0312 12.216L32.7512 11.76C30.7352 11.344 29.7272 10.304 29.7272 8.64C29.7272 7.536 30.1672 6.656 31.0472 6C31.9272 5.344 33.0792 5.016 34.5032 5.016C35.3192 5.016 36.0952 5.136 36.8312 5.376C37.5832 5.616 38.2072 5.976 38.7032 6.456L38.0072 8.088C37.5272 7.672 36.9752 7.352 36.3512 7.128C35.7272 6.904 35.1112 6.792 34.5032 6.792C33.6712 6.792 33.0392 6.952 32.6072 7.272C32.1752 7.576 31.9592 7.992 31.9592 8.52C31.9592 9.32 32.4872 9.832 33.5432 10.056L35.8232 10.512C36.8632 10.72 37.6472 11.072 38.1752 11.568C38.7192 12.064 38.9912 12.736 38.9912 13.584C38.9912 14.704 38.5512 15.584 37.6712 16.224C36.7912 16.848 35.6232 17.16 34.1672 17.16Z" fill="#161616"/>
<path d="M47.7842 17.16C44.9522 17.16 43.5362 15.584 43.5362 12.432V5.232H45.9602V12.456C45.9602 13.4 46.1522 14.096 46.5362 14.544C46.9202 14.992 47.5282 15.216 48.3602 15.216C49.2722 15.216 50.0082 14.912 50.5682 14.304C51.1442 13.696 51.4322 12.88 51.4322 11.856V5.232H53.8562V16.944H51.5042V15.072C51.1202 15.76 50.6082 16.28 49.9682 16.632C49.3282 16.984 48.6002 17.16 47.7842 17.16Z" fill="#161616"/>
<path d="M59.1922 16.944V0.0239992H61.6162V10.344H61.6642L66.7523 5.232H69.7523L64.1363 10.872L70.1842 16.944H67.1602L61.6642 11.592H61.6162V16.944H59.1922Z" fill="#161616"/>
<path d="M77.6632 17.16C74.8312 17.16 73.4153 15.584 73.4153 12.432V5.232H75.8392V12.456C75.8392 13.4 76.0313 14.096 76.4153 14.544C76.7993 14.992 77.4072 15.216 78.2393 15.216C79.1512 15.216 79.8872 14.912 80.4473 14.304C81.0233 13.696 81.3112 12.88 81.3112 11.856V5.232H83.7353V16.944H81.3832V15.072C80.9992 15.76 80.4873 16.28 79.8473 16.632C79.2073 16.984 78.4792 17.16 77.6632 17.16Z" fill="#161616"/>
<path d="M93.1753 17.16C92.2153 17.16 91.3193 17.04 90.4873 16.8C89.6553 16.544 88.9593 16.192 88.3993 15.744L89.0953 14.112C89.6873 14.528 90.3353 14.848 91.0393 15.072C91.7593 15.296 92.4793 15.408 93.1993 15.408C94.0473 15.408 94.6873 15.256 95.1193 14.952C95.5513 14.648 95.7673 14.24 95.7673 13.728C95.7673 13.312 95.6233 12.992 95.3353 12.768C95.0473 12.528 94.6153 12.344 94.0393 12.216L91.7593 11.76C89.7433 11.344 88.7353 10.304 88.7353 8.64C88.7353 7.536 89.1753 6.656 90.0553 6C90.9353 5.344 92.0873 5.016 93.5113 5.016C94.3273 5.016 95.1033 5.136 95.8393 5.376C96.5913 5.616 97.2153 5.976 97.7113 6.456L97.0153 8.088C96.5353 7.672 95.9833 7.352 95.3593 7.128C94.7353 6.904 94.1193 6.792 93.5113 6.792C92.6793 6.792 92.0473 6.952 91.6153 7.272C91.1833 7.576 90.9673 7.992 90.9673 8.52C90.9673 9.32 91.4953 9.832 92.5513 10.056L94.8313 10.512C95.8713 10.72 96.6553 11.072 97.1833 11.568C97.7273 12.064 97.9993 12.736 97.9993 13.584C97.9993 14.704 97.5593 15.584 96.6793 16.224C95.7993 16.848 94.6313 17.16 93.1753 17.16Z" fill="#161616"/>
<path d="M102.616 16.944V0.0239992H105.04V7.056C105.44 6.384 105.976 5.88 106.648 5.544C107.336 5.192 108.104 5.016 108.952 5.016C111.72 5.016 113.104 6.584 113.104 9.72V16.944H110.68V9.864C110.68 8.856 110.48 8.12 110.08 7.656C109.696 7.192 109.088 6.96 108.256 6.96C107.28 6.96 106.496 7.272 105.904 7.896C105.328 8.504 105.04 9.312 105.04 10.32V16.944H102.616Z" fill="#161616"/>
<path d="M118.148 2.52V0H120.98V2.52H118.148ZM118.364 16.944V5.232H120.788V16.944H118.364Z" fill="#161616"/>
</svg>
